<svg width="27" height="13" fill="none" xmlns="http://www.w3.org/2000/svg"><path opacity=".4" d="M4 1h16c.708 0 1.21 0 1.601.032.386.032.622.092.807.186a2 2 0 01.874.874c.094.185.154.42.186.807.032.392.032.893.032 1.601v3.648c0 .638 0 1.089-.026 1.443-.026.349-.075.564-.152.733a2 2 0 01-.998.998c-.17.077-.384.126-.733.152-.354.026-.805.026-1.443.026H4c-.708 0-1.21 0-1.601-.032-.386-.032-.622-.092-.807-.186a2 2 0 01-.874-.874c-.094-.185-.154-.42-.186-.807C.5 9.21.5 8.708.5 8V4.5c0-.708 0-1.21.032-1.601.032-.386.092-.622.186-.807a2 2 0 01.874-.874c.185-.094.42-.154.807-.186C2.79 1 3.292 1 4 1z" stroke="#fff"/><path opacity=".4" fill-rule="evenodd" clip-rule="evenodd" d="M25 8.374A2 2 0 0025 4.5v3.874z" fill="#fff"/><path fill-rule="evenodd" clip-rule="evenodd" d="M2 3a.5.5 0 01.5-.5h19a.5.5 0 01.5.5v6.5a.5.5 0 01-.5.5h-19a.5.5 0 01-.5-.5V3z" fill="#fff"/></svg>