<svg width="27" height="13" viewBox="0 0 27 13" fill="none" xmlns="http://www.w3.org/2000/svg">
<path opacity="0.4" d="M4 1H20C20.7083 1 21.2095 1.00039 21.6013 1.0324C21.9872 1.06393 22.2228 1.12365 22.408 1.21799C22.7843 1.40973 23.0903 1.71569 23.282 2.09202C23.3764 2.27717 23.4361 2.51276 23.4676 2.89872C23.4996 3.29052 23.5 3.79168 23.5 4.5V8.14764C23.5 8.78558 23.4997 9.23693 23.4736 9.59094C23.4478 9.93994 23.399 10.1546 23.3222 10.3244C23.1219 10.7672 22.7672 11.1219 22.3244 11.3222C22.1546 11.399 21.9399 11.4478 21.5909 11.4736C21.2369 11.4997 20.7856 11.5 20.1476 11.5H4C3.29168 11.5 2.79052 11.4996 2.39872 11.4676C2.01276 11.4361 1.77717 11.3764 1.59202 11.282C1.21569 11.0903 0.909734 10.7843 0.717987 10.408C0.623645 10.2228 0.563934 9.98724 0.5324 9.60128C0.500389 9.20948 0.5 8.70832 0.5 8V4.5C0.5 3.79168 0.500389 3.29052 0.5324 2.89872C0.563934 2.51276 0.623645 2.27717 0.717987 2.09202C0.909734 1.71569 1.21569 1.40973 1.59202 1.21799C1.77717 1.12365 2.01276 1.06393 2.39872 1.0324C2.79052 1.00039 3.29168 1 4 1Z" stroke="white"/>
<path opacity="0.4" fill-rule="evenodd" clip-rule="evenodd" d="M25 8.37398C25.8626 8.15196 26.5 7.36891 26.5 6.43699C26.5 5.50507 25.8626 4.72202 25 4.5V8.37398Z" fill="white"/>
<path fill-rule="evenodd" clip-rule="evenodd" d="M2 3C2 2.72386 2.22386 2.5 2.5 2.5H21.5C21.7761 2.5 22 2.72386 22 3V9.5C22 9.77614 21.7761 10 21.5 10H2.5C2.22386 10 2 9.77614 2 9.5V3Z" fill="white"/>
</svg>
