<svg width="15" height="10" viewBox="0 0 15 10" fill="none" xmlns="http://www.w3.org/2000/svg">
<path fill-rule="evenodd" clip-rule="evenodd" d="M0.32959 2.82956C2.20634 1.07441 4.72771 0 7.50003 0C10.2723 0 12.7937 1.07441 14.6705 2.82956L13.2553 4.24476C11.7413 2.85108 9.72005 2 7.50003 2C5.28001 2 3.25877 2.85108 1.74479 4.24476L0.32959 2.82956H0.32959ZM2.80656 5.30653C4.04815 4.18377 5.69424 3.5 7.50003 3.5C9.30582 3.5 10.9519 4.18377 12.1935 5.30653L10.7768 6.72326C9.89923 5.96124 8.75349 5.5 7.50003 5.5C6.24656 5.5 5.10083 5.96124 4.22329 6.72326L2.80656 5.30653ZM5.28774 7.78771C5.89068 7.29532 6.66087 7 7.50003 7C8.33919 7 9.10937 7.29532 9.71232 7.78771L7.50003 10L5.28774 7.78771V7.78771Z" fill="white"/>
</svg>
